<?xml version="1.0" ?><!DOCTYPE svg  PUBLIC '-//W3C//DTD SVG 1.1//EN'  'http://www.w3.org/Graphics/SVG/1.1/DTD/svg11.dtd'><svg enable-background="new 0 0 1024 1024" height="1024px" id="Layer_1" version="1.1" viewBox="0 0 1024 1024" width="1024px" xml:space="preserve" xmlns="http://www.w3.org/2000/svg" xmlns:xlink="http://www.w3.org/1999/xlink"><g><g><path clip-rule="evenodd" d="M639.266,164.26c122.627,87.325,251.254,80.383,384.734,25.3     c-6.702,23.354-12.92,45.24-19.261,67.088c-23.945,82.5-47.805,165.025-72.19,247.391c-1.623,5.486-6.339,11.992-11.326,14.247     c-65.924,29.853-134.55,45.758-207.486,38.64c-59.708-5.825-114.217-26.03-164.253-58.633c-2.752-1.794-5.223-7.78-4.353-10.823     c30.547-106.886,61.511-213.652,92.442-320.428C637.779,166.33,638.358,165.723,639.266,164.26z" fill-rule="evenodd"/><path clip-rule="evenodd" d="M521.671,570.295c121.522,86.404,250.066,75.816,382.588,32.002     c-0.874,4.219-1.331,7.478-2.231,10.611c-28.36,98.995-56.68,198-85.404,296.888c-1.401,4.828-5.478,10.811-9.805,12.565     c-52.819,21.423-106.977,37.481-164.299,41.947c-40.662,3.168-79.239-4.735-116.228-19.876     c-31.224-12.782-61.211-28.58-91.816-42.895c-5.98-2.798-7.433-6.291-5.52-12.887c30.301-104.502,60.341-209.078,90.477-313.633     C519.839,573.603,520.698,572.315,521.671,570.295z" fill-rule="evenodd"/><path clip-rule="evenodd" d="M365.662,862.895C249.703,773.952,127.275,783.874,0,836.826     c9.5-33.169,18.076-63.288,26.752-93.377c21.533-74.678,43.246-149.307,64.482-224.069c2.36-8.307,6.19-12.999,14.375-16.099     c51.545-19.53,104.304-33.867,159.46-37.849c62.482-4.508,118.973,14.554,172.249,45.28     c27.521,15.873,27.491,16.048,18.557,46.529c-28.751,98.074-57.548,196.137-86.349,294.2     C368.658,854.405,367.559,857.302,365.662,862.895z" fill-rule="evenodd"/><path clip-rule="evenodd" d="M116.747,427.23c12.815-44.879,25.198-88.158,37.527-131.451     c17.57-61.697,35.233-123.369,52.481-185.156c2.109-7.551,5.725-11.669,13.077-14.449     c45.646-17.262,92.046-31.172,140.942-35.681c50.612-4.666,99.547,1.244,145.901,22.754     c21.858,10.142,43.035,21.741,64.578,32.568c5.108,2.568,7.597,5.424,5.706,11.843     c-31.283,106.298-62.351,212.659-93.505,318.995c-0.193,0.657-0.95,1.15-2.357,2.774c-5.887-3.72-11.979-7.603-18.103-11.435     c-38.928-24.366-79.945-43.316-126.013-49.735c-54.48-7.592-107.05,1.55-158.774,17.777     C158.189,412.314,138.515,419.687,116.747,427.23z" fill-rule="evenodd"/></g></g></svg>